<mxfile host="app.diagrams.net" modified="2021-07-06T11:05:50.692Z" agent="5.0 (Macintosh; Intel Mac OS X 10_15_4) AppleWebKit/537.36 (KHTML, like Gecko) Chrome/91.0.4472.114 Safari/537.36" etag="vBkBq8VypKUz3uMy288K" version="14.8.4" type="github">
  <diagram id="YHMO-dssUFv8ocbpak26" name="Page-1">
    <mxGraphModel dx="946" dy="535" grid="1" gridSize="10" guides="1" tooltips="1" connect="1" arrows="1" fold="1" page="1" pageScale="1" pageWidth="827" pageHeight="1169" math="0" shadow="0">
      <root>
        <mxCell id="0" />
        <mxCell id="1" parent="0" />
        <mxCell id="cqQiNdcYFdobyBqoFAKi-22" style="edgeStyle=orthogonalEdgeStyle;rounded=0;orthogonalLoop=1;jettySize=auto;html=1;" edge="1" parent="1" source="cqQiNdcYFdobyBqoFAKi-16" target="cqQiNdcYFdobyBqoFAKi-17">
          <mxGeometry relative="1" as="geometry" />
        </mxCell>
        <mxCell id="cqQiNdcYFdobyBqoFAKi-16" value="relay" style="rounded=1;whiteSpace=wrap;html=1;" vertex="1" parent="1">
          <mxGeometry x="40" y="200" width="120" height="60" as="geometry" />
        </mxCell>
        <mxCell id="cqQiNdcYFdobyBqoFAKi-23" style="edgeStyle=orthogonalEdgeStyle;rounded=0;orthogonalLoop=1;jettySize=auto;html=1;entryX=0;entryY=0.5;entryDx=0;entryDy=0;" edge="1" parent="1" source="cqQiNdcYFdobyBqoFAKi-17" target="cqQiNdcYFdobyBqoFAKi-18">
          <mxGeometry relative="1" as="geometry" />
        </mxCell>
        <mxCell id="cqQiNdcYFdobyBqoFAKi-24" style="edgeStyle=orthogonalEdgeStyle;rounded=0;orthogonalLoop=1;jettySize=auto;html=1;entryX=0;entryY=0.5;entryDx=0;entryDy=0;" edge="1" parent="1" source="cqQiNdcYFdobyBqoFAKi-17" target="cqQiNdcYFdobyBqoFAKi-19">
          <mxGeometry relative="1" as="geometry" />
        </mxCell>
        <mxCell id="cqQiNdcYFdobyBqoFAKi-25" style="edgeStyle=orthogonalEdgeStyle;rounded=0;orthogonalLoop=1;jettySize=auto;html=1;entryX=0;entryY=0.5;entryDx=0;entryDy=0;" edge="1" parent="1" source="cqQiNdcYFdobyBqoFAKi-17" target="cqQiNdcYFdobyBqoFAKi-21">
          <mxGeometry relative="1" as="geometry" />
        </mxCell>
        <mxCell id="cqQiNdcYFdobyBqoFAKi-17" value="cache" style="rounded=1;whiteSpace=wrap;html=1;" vertex="1" parent="1">
          <mxGeometry x="240" y="200" width="120" height="60" as="geometry" />
        </mxCell>
        <mxCell id="cqQiNdcYFdobyBqoFAKi-27" style="edgeStyle=orthogonalEdgeStyle;rounded=0;orthogonalLoop=1;jettySize=auto;html=1;entryX=0;entryY=0.5;entryDx=0;entryDy=0;" edge="1" parent="1" source="cqQiNdcYFdobyBqoFAKi-18" target="cqQiNdcYFdobyBqoFAKi-20">
          <mxGeometry relative="1" as="geometry" />
        </mxCell>
        <mxCell id="cqQiNdcYFdobyBqoFAKi-18" value="storage" style="rounded=1;whiteSpace=wrap;html=1;" vertex="1" parent="1">
          <mxGeometry x="440" y="200" width="120" height="60" as="geometry" />
        </mxCell>
        <mxCell id="cqQiNdcYFdobyBqoFAKi-26" style="edgeStyle=orthogonalEdgeStyle;rounded=0;orthogonalLoop=1;jettySize=auto;html=1;entryX=0;entryY=0.5;entryDx=0;entryDy=0;" edge="1" parent="1" source="cqQiNdcYFdobyBqoFAKi-19" target="cqQiNdcYFdobyBqoFAKi-20">
          <mxGeometry relative="1" as="geometry" />
        </mxCell>
        <mxCell id="cqQiNdcYFdobyBqoFAKi-19" value="index" style="rounded=1;whiteSpace=wrap;html=1;" vertex="1" parent="1">
          <mxGeometry x="440" y="100" width="120" height="60" as="geometry" />
        </mxCell>
        <mxCell id="cqQiNdcYFdobyBqoFAKi-20" value="api" style="rounded=1;whiteSpace=wrap;html=1;" vertex="1" parent="1">
          <mxGeometry x="640" y="200" width="120" height="60" as="geometry" />
        </mxCell>
        <mxCell id="cqQiNdcYFdobyBqoFAKi-28" style="edgeStyle=orthogonalEdgeStyle;rounded=0;orthogonalLoop=1;jettySize=auto;html=1;entryX=0;entryY=0.5;entryDx=0;entryDy=0;" edge="1" parent="1" source="cqQiNdcYFdobyBqoFAKi-21" target="cqQiNdcYFdobyBqoFAKi-20">
          <mxGeometry relative="1" as="geometry" />
        </mxCell>
        <mxCell id="cqQiNdcYFdobyBqoFAKi-21" value="alarm" style="rounded=1;whiteSpace=wrap;html=1;" vertex="1" parent="1">
          <mxGeometry x="440" y="300" width="120" height="60" as="geometry" />
        </mxCell>
      </root>
    </mxGraphModel>
  </diagram>
</mxfile>
